<?xml version="1.0" encoding="UTF-8" standalone="no"?>
<!-- Created with Inkscape (http://www.inkscape.org/) -->

<svg
   xmlns:dc="http://purl.org/dc/elements/1.1/"
   xmlns:cc="http://creativecommons.org/ns#"
   xmlns:rdf="http://www.w3.org/1999/02/22-rdf-syntax-ns#"
   xmlns:svg="http://www.w3.org/2000/svg"
   xmlns="http://www.w3.org/2000/svg"
   xmlns:sodipodi="http://sodipodi.sourceforge.net/DTD/sodipodi-0.dtd"
   xmlns:inkscape="http://www.inkscape.org/namespaces/inkscape"
   width="210mm"
   height="297mm"
   id="svg2"
   version="1.1"
   inkscape:version="0.48.4 r9939"
   sodipodi:docname="osh.svg"
   inkscape:export-filename="/home0/y2015/h1531085/.ced/画像/osh.png"
   inkscape:export-xdpi="90"
   inkscape:export-ydpi="90">
  <defs
     id="defs4">
    <marker
       style="overflow:visible"
       id="DistanceStart"
       refX="0.0"
       refY="0.0"
       orient="auto"
       inkscape:stockid="DistanceStart">
      <g
         id="g2300">
        <path
           style="fill:none;stroke:#ffffff;stroke-width:1.15;stroke-linecap:square"
           d="M 0,0 L 2,0"
           id="path2306" />
        <path
           style="fill:#000000;fill-rule:evenodd;stroke:none"
           d="M 0,0 L 13,4 L 9,0 13,-4 L 0,0 z "
           id="path2302" />
        <path
           style="fill:none;stroke:#000000;stroke-width:1;stroke-linecap:square"
           d="M 0,-4 L 0,40"
           id="path2304" />
      </g>
    </marker>
  </defs>
  <sodipodi:namedview
     id="base"
     pagecolor="#ffffff"
     bordercolor="#666666"
     borderopacity="1.0"
     inkscape:pageopacity="0.0"
     inkscape:pageshadow="2"
     inkscape:zoom="1.4"
     inkscape:cx="345.63584"
     inkscape:cy="752.13083"
     inkscape:document-units="px"
     inkscape:current-layer="layer1"
     showgrid="false"
     inkscape:window-width="938"
     inkscape:window-height="1119"
     inkscape:window-x="0"
     inkscape:window-y="25"
     inkscape:window-maximized="0"
     showguides="false">
    <inkscape:grid
       type="xygrid"
       id="grid2985" />
  </sodipodi:namedview>
  <metadata
     id="metadata7">
    <rdf:RDF>
      <cc:Work
         rdf:about="">
        <dc:format>image/svg+xml</dc:format>
        <dc:type
           rdf:resource="http://purl.org/dc/dcmitype/StillImage" />
        <dc:title></dc:title>
      </cc:Work>
    </rdf:RDF>
  </metadata>
  <g
     inkscape:label="レイヤー 1"
     inkscape:groupmode="layer"
     id="layer1">
    <path
       style="fill:none;stroke:#000000;stroke-width:1px;stroke-linecap:butt;stroke-linejoin:miter;stroke-opacity:1"
       d="m 100,152.36218 0,200 80,40 40,0 20,-60 20,0 20,-40 40,0 20,-40 0,0"
       id="path3765"
       inkscape:connector-curvature="0" />
    <path
       style="fill:none;stroke:#000000;stroke-width:1px;stroke-linecap:butt;stroke-linejoin:miter;stroke-opacity:1"
       d="m 600.11612,152.36218 0,200 -80,40 -40,0 -20,-60 -20,0 -20,-40 -40,0 -20,-40 0,0"
       id="path3765-6"
       inkscape:connector-curvature="0" />
    <path
       style="fill:none;stroke:#000000;stroke-width:1px;stroke-linecap:butt;stroke-linejoin:miter;stroke-opacity:1"
       d="m 340,252.36218 c 5.9329,-10.27284 12.18237,-16.11339 20,0"
       id="path3785"
       inkscape:connector-curvature="0"
       sodipodi:nodetypes="cc" />
    <path
       style="fill:none;stroke:#000000;stroke-width:1.10704875px;stroke-linecap:butt;stroke-linejoin:miter;stroke-opacity:1"
       d="m 100.05352,152.4157 73.79675,29.89296 -12.29946,-19.92864 49.19783,0 24.59892,19.92864 24.59892,0"
       id="path3787"
       inkscape:connector-curvature="0" />
    <path
       inkscape:connector-curvature="0"
       id="path3800"
       d="m 599.94769,152.41449 -73.4682,29.89538 12.2447,-19.93025 -48.97879,0 -24.4894,19.93025 -24.4894,0"
       style="fill:none;stroke:#000000;stroke-width:1.10462642px;stroke-linecap:butt;stroke-linejoin:miter;stroke-opacity:1" />
    <path
       style="fill:none;stroke:#000000;stroke-width:1;stroke-linecap:butt;stroke-linejoin:miter;stroke-opacity:0.25882354000000002;stroke-miterlimit:4;stroke-dasharray:1,12;stroke-dashoffset:0"
       d="m 260,182.36218 80,70"
       id="path3804"
       inkscape:connector-curvature="0" />
    <path
       style="fill:none;stroke:#000000;stroke-width:1;stroke-linecap:butt;stroke-linejoin:miter;stroke-opacity:0.25882354000000002;stroke-miterlimit:4;stroke-dasharray:1,12;stroke-dashoffset:0"
       d="m 360,252.36218 80,-70"
       id="path3806"
       inkscape:connector-curvature="0" />
    <path
       style="fill:none;stroke:#000000;stroke-width:1;stroke-linecap:butt;stroke-linejoin:miter;stroke-opacity:0.25978648999999998;stroke-miterlimit:4;stroke-dasharray:1,12;stroke-dashoffset:0"
       d="m 260,182.36218 80,-119.999997 20,0 80,119.999997"
       id="path3808"
       inkscape:connector-curvature="0" />
    <path
       style="fill:none;stroke:#000000;stroke-width:1px;stroke-linecap:butt;stroke-linejoin:miter;stroke-opacity:1"
       d="m 340,62.362183 -10,-10 -80,109.999997 10,20"
       id="path3810"
       inkscape:connector-curvature="0" />
    <path
       style="fill:none;stroke:#000000;stroke-width:1px;stroke-linecap:butt;stroke-linejoin:miter;stroke-opacity:1"
       d="m 360,62.362183 10,-20 120,99.999997 -50,40"
       id="path3812"
       inkscape:connector-curvature="0" />
    <path
       style="fill:none;stroke:#000000;stroke-width:1px;stroke-linecap:butt;stroke-linejoin:miter;stroke-opacity:1"
       d="m 340,62.362183 c 5.93289,-9.539071 12.18238,-14.962435 20,0"
       id="path3814"
       inkscape:connector-curvature="0"
       sodipodi:nodetypes="cc" />
    <path
       sodipodi:type="arc"
       style="fill:#000000;fill-opacity:1;stroke:#000000;stroke-opacity:1"
       id="path3818"
       sodipodi:cx="500"
       sodipodi:cy="172.36218"
       sodipodi:rx="5"
       sodipodi:ry="5"
       d="m 505,172.36218 a 5,5 0 1 1 -10,0 5,5 0 1 1 10,0 z" />
    <path
       d="m 505,172.36218 a 5,5 0 1 1 -10,0 5,5 0 1 1 10,0 z"
       sodipodi:ry="5"
       sodipodi:rx="5"
       sodipodi:cy="172.36218"
       sodipodi:cx="500"
       id="path3820"
       style="fill:#000000;fill-opacity:1;stroke:#000000;stroke-opacity:1"
       sodipodi:type="arc"
       transform="translate(-300,0)" />
    <path
       style="fill:none;stroke:#000000;stroke-width:3;stroke-linecap:round;stroke-linejoin:round;stroke-opacity:1;stroke-miterlimit:4;stroke-dasharray:none;marker-start:none"
       d="m 305,222.36218 -90,-5 -15,-40"
       id="path3822"
       inkscape:connector-curvature="0" />
    <path
       inkscape:connector-curvature="0"
       id="path3824"
       d="m 395.01016,222.36218 90,-5 15,-40"
       style="fill:none;stroke:#000000;stroke-width:3;stroke-linecap:round;stroke-linejoin:round;stroke-opacity:1;stroke-miterlimit:4;stroke-dasharray:none" />
    <path
       inkscape:connector-curvature="0"
       id="path4662"
       d="m 305,222.36218 -90,-5 -15,-40"
       style="fill:none;stroke:#000000;stroke-width:6.50000000000000000;stroke-linecap:round;stroke-linejoin:round;stroke-opacity:0.46263346000000000;stroke-miterlimit:4;stroke-dasharray:none;marker-start:none;fill-rule:nonzero" />
    <path
       style="fill:none;stroke:#000000;stroke-width:6.5;stroke-linecap:round;stroke-linejoin:round;stroke-miterlimit:4;stroke-opacity:0.4626335;stroke-dasharray:none;marker-start:none"
       d="m 394.98984,222.36218 90,-5 15,-40"
       id="path4664"
       inkscape:connector-curvature="0" />
    <path
       transform="matrix(1.3758748,0,0,1.3758748,-487.82581,-64.786604)"
       sodipodi:type="arc"
       style="fill:#000000;fill-opacity:0.4627451;fill-rule:evenodd;stroke:none"
       id="path4666"
       sodipodi:cx="500"
       sodipodi:cy="172.36218"
       sodipodi:rx="5"
       sodipodi:ry="5"
       d="m 505,172.36218 a 5,5 0 1 1 -10,0 5,5 0 1 1 10,0 z" />
    <path
       d="m 505,172.36218 a 5,5 0 1 1 -10,0 5,5 0 1 1 10,0 z"
       sodipodi:ry="5"
       sodipodi:rx="5"
       sodipodi:cy="172.36218"
       sodipodi:cx="500"
       id="path4668"
       style="fill:#000000;fill-opacity:0.4627451;fill-rule:evenodd;stroke:none"
       sodipodi:type="arc"
       transform="matrix(1.3758748,0,0,1.3758748,-187.82581,-64.786604)" />
    <path
       inkscape:connector-curvature="0"
       id="path4672"
       d="m 100,292.36218 190,-50 50,10"
       style="fill:none;stroke:#000000;stroke-width:22.89999999999999858;stroke-linecap:round;stroke-linejoin:round;stroke-opacity:0.25882354000000002;stroke-miterlimit:4;stroke-dasharray:none;fill-opacity:0.46274510000000002" />
    <path
       inkscape:connector-curvature="0"
       id="path4678"
       d="m 170,277.36218 c 0,0 13.87033,30.8034 30,35 31.77177,8.26634 66.26482,-17.31919 90,-40 5.38879,-5.14941 11.19393,-12.64268 10,-20 -0.75511,-4.65317 -10,-10 -10,-10"
       style="fill:none;stroke:#000000;stroke-width:5.19999981;stroke-linecap:round;stroke-linejoin:round;stroke-miterlimit:4;stroke-opacity:0.7372549;stroke-dasharray:none"
       sodipodi:nodetypes="csaac" />
    <path
       style="fill:none;stroke:#000000;stroke-width:9.40000000000000036;stroke-linecap:round;stroke-linejoin:round;stroke-opacity:0.53333335999999998;stroke-miterlimit:4;stroke-dasharray:none;fill-opacity:0.46274510000000002"
       d="m 100,292.36218 190,-50 50,10"
       id="path4691"
       inkscape:connector-curvature="0" />
    <path
       sodipodi:nodetypes="csaac"
       style="fill:none;stroke:#000000;stroke-width:5.19999980999999956;stroke-linecap:round;stroke-linejoin:round;stroke-miterlimit:4;stroke-opacity:0.23529412;stroke-dasharray:none"
       d="m 170,277.36218 c 0,0 13.87033,30.8034 30,35 31.77177,8.26634 66.26482,-17.31919 90,-40 5.38879,-5.14941 11.19393,-12.64268 10,-20 -0.75511,-4.65317 -10,-10 -10,-10"
       id="path4699"
       inkscape:connector-curvature="0" />
    <path
       inkscape:connector-curvature="0"
       id="path4701"
       d="m 100,292.36218 190,-50 50,10"
       style="fill:none;stroke:#000000;stroke-width:9.40000000000000036;stroke-linecap:round;stroke-linejoin:round;stroke-opacity:0.53333335999999998;stroke-miterlimit:4;stroke-dasharray:none;fill-opacity:0.46274510000000002" />
    <path
       style="fill:none;stroke:#000000;stroke-width:22.89999962;stroke-linecap:round;stroke-linejoin:round;stroke-miterlimit:4;stroke-opacity:0.25882353;stroke-dasharray:none"
       d="m 600,292.36218 -190,-50 -50,10"
       id="path4703"
       inkscape:connector-curvature="0" />
    <path
       sodipodi:nodetypes="csaac"
       style="fill:none;stroke:#000000;stroke-width:5.19999981;stroke-linecap:round;stroke-linejoin:round;stroke-miterlimit:4;stroke-opacity:0.7372549;stroke-dasharray:none"
       d="m 530,277.36218 c 0,0 -13.87033,30.8034 -30,35 -31.77177,8.26634 -66.26482,-17.31919 -90,-40 -5.38879,-5.14941 -11.19393,-12.64268 -10,-20 0.75511,-4.65317 10,-10 10,-10"
       id="path4705"
       inkscape:connector-curvature="0" />
    <path
       inkscape:connector-curvature="0"
       id="path4707"
       d="m 600,292.36218 -190,-50 -50,10"
       style="fill:none;stroke:#000000;stroke-width:9.39999962;stroke-linecap:round;stroke-linejoin:round;stroke-miterlimit:4;stroke-opacity:0.53333285;stroke-dasharray:none" />
    <path
       inkscape:connector-curvature="0"
       id="path4709"
       d="m 530,277.36218 c 0,0 -13.87033,30.8034 -30,35 -31.77177,8.26634 -66.26482,-17.31919 -90,-40 -5.38879,-5.14941 -11.19393,-12.64268 -10,-20 0.75511,-4.65317 10,-10 10,-10"
       style="fill:none;stroke:#000000;stroke-width:5.19999980999999956;stroke-linecap:round;stroke-linejoin:round;stroke-miterlimit:4;stroke-opacity:0.23420075;stroke-dasharray:none"
       sodipodi:nodetypes="csaac" />
    <path
       style="fill:none;stroke:#000000;stroke-width:9.39999962;stroke-linecap:round;stroke-linejoin:round;stroke-miterlimit:4;stroke-opacity:0.53333285;stroke-dasharray:none"
       d="m 600,292.36218 -190,-50 -50,10"
       id="path4711"
       inkscape:connector-curvature="0" />
    <path
       style="fill:#000000;fill-opacity:0.69803923;stroke:none"
       d="m 195,312.71932 10,-0.35714 c 0,0 -25,50 -15,20 10,-30 5,-19.64286 5,-19.64286 z"
       id="path4727"
       inkscape:connector-curvature="0"
       sodipodi:nodetypes="cczc" />
    <path
       sodipodi:nodetypes="cczc"
       inkscape:connector-curvature="0"
       id="path4729"
       d="m 497.63889,312.71932 -10,-0.35714 c 0,0 25,50 15,20 -10,-30 -5,-19.64286 -5,-19.64286 z"
       style="fill:#000000;fill-opacity:0.69803922;stroke:none" />
    <path
       style="fill:none;stroke:#000000;stroke-width:1;stroke-linecap:butt;stroke-linejoin:miter;stroke-opacity:0.25882354000000002;stroke-miterlimit:4;stroke-dasharray:1,12;stroke-dashoffset:0"
       d="m 340,62.362183 0,189.999997"
       id="path4731"
       inkscape:connector-curvature="0" />
    <path
       style="fill:none;stroke:#000000;stroke-width:1;stroke-linecap:butt;stroke-linejoin:miter;stroke-opacity:0.26765800000000001;stroke-miterlimit:4;stroke-dasharray:1,12;stroke-dashoffset:0"
       d="m 360,62.362183 0,189.999997"
       id="path4733"
       inkscape:connector-curvature="0" />
  </g>
</svg>
